<svg xmlns="http://www.w3.org/2000/svg" xmlns:xlink="http://www.w3.org/1999/xlink" width="243.36" height="243.36" viewBox="0 0 243.36 243.36">
  <defs>
    <filter id="Ellipse_32" x="0" y="0" width="243.36" height="243.36" filterUnits="userSpaceOnUse">
      <feOffset dy="15" input="SourceAlpha"/>
      <feGaussianBlur stdDeviation="10" result="blur"/>
      <feFlood flood-color="#151d41" flood-opacity="0.059"/>
      <feComposite operator="in" in2="blur"/>
      <feComposite in="SourceGraphic"/>
    </filter>
  </defs>
  <g id="Group_232" data-name="Group 232" transform="translate(30 15)">
    <g transform="matrix(1, 0, 0, 1, -30, -15)" filter="url(#Ellipse_32)">
      <circle id="Ellipse_32-2" data-name="Ellipse 32" cx="91.68" cy="91.68" r="91.68" transform="translate(30 15)" fill="#fff"/>
    </g>
    <g id="Subtraction_11" data-name="Subtraction 11" transform="translate(91.279 21.258)" fill="#fff">
      <path d="M 63.66069030761719 64.02686309814453 L 7.500004768371582 64.02686309814453 L 7.500004768371582 7.939071178436279 C 9.308415412902832 8.149922370910645 11.10381698608398 8.436313629150391 12.87670516967773 8.797277450561523 C 16.99200439453125 9.635377883911133 21.04082107543945 10.88627815246582 24.91033744812012 12.51514434814453 C 28.70938873291016 14.11451148986816 32.37465667724609 16.09464454650879 35.80410385131836 18.40046119689941 C 39.19990539550781 20.6838436126709 42.39503860473633 23.30776023864746 45.30047225952148 26.19909477233887 C 48.20297241210938 29.08794403076172 50.83843994140625 32.26700973510742 53.13327026367188 35.64760971069336 C 55.44828796386719 39.05832672119141 57.43592071533203 42.70282745361328 59.04073715209961 46.47951126098633 C 60.6751708984375 50.3254280090332 61.93025588989258 54.34954452514648 62.77128982543945 58.44037628173828 C 63.14990615844727 60.28200531005859 63.44670486450195 62.1474494934082 63.66069030761719 64.02686309814453 Z" stroke="none"/>
      <path d="M 54.60657501220703 56.52685546875 C 53.94540023803711 54.10334014892578 53.11938095092773 51.7216911315918 52.1380729675293 49.41261672973633 C 50.72316741943359 46.08283233642578 48.97006988525391 42.86861801147461 46.92792892456055 39.85992813110352 C 44.90138244628906 36.87456893920898 42.5736198425293 34.0667610168457 40.01007080078125 31.51526069641113 C 37.44250106811523 28.96014213562012 34.61930847167969 26.64164161682129 31.61933326721191 24.62442779541016 C 28.59062004089355 22.58804702758789 25.35423851013184 20.83954620361328 22.0004768371582 19.42766571044922 C 19.72726821899414 18.47074699401855 17.38404083251953 17.66167640686035 15 17.00945472717285 L 15 56.52685546875 L 54.60657501220703 56.52685546875 M 71.57278442382813 71.52685546875 L 71.57223510742188 71.52685546875 L 71.57278442382813 71.52685546875 Z M 71.57278442382813 71.52685546875 L 7.411411928615053e-08 71.52685546875 L 7.411411928615053e-08 -8.370535624635522e-07 C 4.840000152587891 0.004261067602783442 9.675619125366211 0.491642028093338 14.37304782867432 1.448070645332336 C 18.9719295501709 2.384642124176025 23.49619102478027 3.782451629638672 27.82016754150391 5.602642059326172 C 32.06452560424805 7.389451503753662 36.15864181518555 9.601213455200195 39.98883438110352 12.17647552490234 C 43.78045272827148 14.725998878479 47.34747695922852 17.6552619934082 50.59085845947266 20.88290405273438 C 53.83233261108398 24.1091423034668 56.7755012512207 27.65947532653809 59.33859634399414 31.43526077270508 C 61.92649841308594 35.24802398681641 64.14868927001953 39.32278442382813 65.94340515136719 43.54637908935547 C 67.77211761474609 47.84942626953125 69.17652130126953 52.35235595703125 70.11764526367188 56.93006896972656 C 71.08342742919922 61.62776184082031 71.57314300537109 66.46240234375 71.57314300537109 71.29969024658203 C 71.57314300537109 71.37509155273438 71.572998046875 71.450927734375 71.57278442382813 71.52630615234375 L 71.57278442382813 71.52685546875 Z" stroke="none" fill="#27debf"/>
    </g>
    <g id="Group_212" data-name="Group 212" transform="translate(23.531 24.816)">
      <g id="Path_65" data-name="Path 65" transform="translate(0 0)" fill="#fff">
        <path d="M67.219,0A67.217,67.217,0,1,1,17.045,22.486,67.219,67.219,0,0,1,67.219,0Z" stroke="none"/>
        <path d="M 67.21860504150391 1.999984741210938 C 62.46016693115234 1.999984741210938 57.71263885498047 2.514572143554688 53.10789489746094 3.5294189453125 C 48.62925720214844 4.5164794921875 44.24380493164063 5.9854736328125 40.07338714599609 7.8956298828125 C 35.97962188720703 9.770645141601563 32.06544494628906 12.08293151855469 28.43955230712891 14.76828002929688 C 24.8428955078125 17.43196868896484 21.51177215576172 20.47593688964844 18.53868103027344 23.81560516357422 C 13.31156921386719 29.68718719482422 9.228729248046875 36.35004425048828 6.403579711914063 43.61911773681641 C 3.481582641601563 51.13735198974609 2 59.07736968994141 2 67.21858978271484 C 2 76.02393341064453 3.724090576171875 84.56480407714844 7.1243896484375 92.60400390625 C 8.758735656738281 96.46804809570313 10.78171539306641 100.1950607299805 13.13713073730469 103.6815338134766 C 15.47051239013672 107.1354064941406 18.15031433105469 110.3833312988281 21.10208129882813 113.3350982666016 C 24.05385589599609 116.286865234375 27.30178833007813 118.9666595458984 30.75566101074219 121.3000411987305 C 34.24213409423828 123.6554641723633 37.96914672851563 125.6784439086914 41.83318328857422 127.3127899169922 C 49.87238311767578 130.7130737304688 58.41326141357422 132.4371643066406 67.21860504150391 132.4371643066406 C 76.02394866943359 132.4371643066406 84.5648193359375 130.7130737304688 92.60401916503906 127.3127899169922 C 96.46806335449219 125.6784439086914 100.1950759887695 123.6554641723633 103.6815490722656 121.3000411987305 C 107.1354217529297 118.9666595458984 110.3833465576172 116.286865234375 113.3351287841797 113.3350982666016 C 116.2868957519531 110.3833312988281 118.9666976928711 107.1354064941406 121.3000793457031 103.6815338134766 C 123.6554946899414 100.1950607299805 125.6784820556641 96.46804809570313 127.3128204345703 92.60400390625 C 130.7131195068359 84.56480407714844 132.4372100830078 76.02393341064453 132.4372100830078 67.21858978271484 C 132.4372100830078 58.41326141357422 130.7131195068359 49.87236785888672 127.3128204345703 41.83319091796875 C 125.6784820556641 37.96915435791016 123.6554946899414 34.24211883544922 121.3000793457031 30.75564575195313 C 118.9666976928711 27.30178833007813 116.2868957519531 24.05384063720703 113.3351135253906 21.10208129882813 C 110.3833465576172 18.15029907226563 107.1354217529297 15.47049713134766 103.6815490722656 13.13711547851563 C 100.1950759887695 10.78170013427734 96.46806335449219 8.758720397949219 92.60401916503906 7.124374389648438 C 84.5648193359375 3.724075317382813 76.02394866943359 1.999984741210938 67.21860504150391 1.999984741210938 M 67.21860504150391 -1.52587890625e-05 C 104.3424224853516 -1.52587890625e-05 134.4372100830078 30.09478759765625 134.4372100830078 67.21858978271484 C 134.4372100830078 104.3424072265625 104.3424224853516 134.4371643066406 67.21860504150391 134.4371643066406 C 30.09478759765625 134.4371643066406 0 104.3424072265625 0 67.21858978271484 C 0 50.06748199462891 6.423492431640625 34.41666412353516 17.04486083984375 22.48575592041016 C 29.30773162841797 8.710823059082031 47.24591064453125 -1.52587890625e-05 67.21860504150391 -1.52587890625e-05 Z" stroke="none" fill="rgba(15,191,97,0.2)"/>
      </g>
    </g>
    <text id="_20_" data-name="20%" transform="translate(90.389 97.002)" fill="#151d41" font-size="36" font-family="SegoeUI-Bold, Segoe UI" font-weight="700"><tspan x="-36.316" y="0">20%</tspan></text>
    <text id="Web_DESIGN" data-name="Web DESIGN" transform="translate(56.131 120.326)" fill="#151d41" font-size="9" font-family="SegoeUI, Segoe UI"><tspan x="0" y="0">WEB DESIGN</tspan></text>
  </g>
</svg>
