<svg xmlns="http://www.w3.org/2000/svg" xmlns:xlink="http://www.w3.org/1999/xlink" width="243.36" height="243.36" viewBox="0 0 243.36 243.36">
  <defs>
    <filter id="Ellipse_31" x="0" y="0" width="243.36" height="243.36" filterUnits="userSpaceOnUse">
      <feOffset dy="15" input="SourceAlpha"/>
      <feGaussianBlur stdDeviation="10" result="blur"/>
      <feFlood flood-color="#151d41" flood-opacity="0.059"/>
      <feComposite operator="in" in2="blur"/>
      <feComposite in="SourceGraphic"/>
    </filter>
  </defs>
  <g id="Group_231" data-name="Group 231" transform="translate(30 15)">
    <g transform="matrix(1, 0, 0, 1, -30, -15)" filter="url(#Ellipse_31)">
      <circle id="Ellipse_31-2" data-name="Ellipse 31" cx="91.68" cy="91.68" r="91.68" transform="translate(30 15)" fill="#fff"/>
    </g>
    <g id="Subtraction_7" data-name="Subtraction 7" transform="translate(20.109 21.257)" fill="#fff">
      <path d="M 69.44337463378906 135.0998992919922 C 62.10547256469727 135.0998992919922 54.91314697265625 133.8795776367188 48.06622314453125 131.4727935791016 C 41.44942092895508 129.1469268798828 35.28724670410156 125.7644500732422 29.75082206726074 121.4193267822266 C 24.26637268066406 117.1149520874023 19.54859733581543 111.9874725341797 15.72854709625244 106.1793518066406 C 13.67482376098633 103.0567474365234 11.91060924530029 99.78170776367188 10.447585105896 96.38065338134766 L 69.44337463378906 96.38065338134766 L 76.94337463378906 96.38065338134766 L 76.94337463378906 88.88065338134766 L 76.94337463378906 7.931775569915771 C 78.77346801757813 8.143372535705566 80.59011840820313 8.432320594787598 82.38409423828125 8.797699928283691 C 86.50039672851563 9.636024475097656 90.5491943359375 10.88689994812012 94.41809844970703 12.51557445526123 C 98.2177734375 14.11514949798584 101.8829498291016 16.09519958496094 105.3117980957031 18.40074920654297 C 108.7093200683594 20.68527412414551 111.9043502807617 23.30902481079102 114.8080978393555 26.19904899597168 C 117.7112503051758 29.08849906921387 120.3465957641602 32.26744842529297 122.640998840332 35.64757537841797 C 124.9556198120117 39.05757522583008 126.9432983398438 42.7021484375 128.5487670898438 46.48004913330078 C 130.1829986572266 50.3255729675293 131.4380950927734 54.34975051879883 132.2792510986328 58.44082641601563 C 133.1430206298828 62.64217376708984 133.5809936523438 66.96855163574219 133.5809936523438 71.29972839355469 C 133.5809936523438 75.63095092773438 133.1430206298828 79.9573974609375 132.2792205810547 84.15889739990234 C 131.4380950927734 88.24992370605469 130.1829986572266 92.27412414550781 128.5487670898438 96.11965179443359 C 126.943244934082 99.89767456054688 124.9555740356445 103.5422973632813 122.6409454345703 106.9523010253906 C 120.3464736938477 110.3325500488281 117.7110977172852 113.5114974975586 114.8080978393555 116.4008026123047 C 111.9043502807617 119.2908782958984 108.7092971801758 121.9146270751953 105.3117446899414 124.1991500854492 C 101.8828735351563 126.5047225952148 98.21772003173828 128.4848022460938 94.41807556152344 130.0843200683594 C 90.549072265625 131.7130737304688 86.50027465820313 132.9639434814453 82.38414764404297 133.80224609375 C 78.15619659423828 134.6632995605469 73.80229949951172 135.0998992919922 69.44337463378906 135.0998992919922 Z" stroke="none"/>
      <path d="M 69.44336700439453 127.5999145507813 C 73.30069732666016 127.5999145507813 77.15103149414063 127.2140808105469 80.88739776611328 126.4531173706055 C 84.520263671875 125.713249206543 88.0936279296875 124.6092529296875 91.50813293457031 123.1718521118164 C 94.86259460449219 121.7597198486328 98.09883117675781 120.0113525390625 101.1268005371094 117.9753494262695 C 104.1286315917969 115.9568862915039 106.9516296386719 113.6386489868164 109.5173950195313 111.0849533081055 C 112.0816955566406 108.5327529907227 114.409294128418 105.7250823974609 116.4354934692383 102.7401504516602 C 118.4774322509766 99.73188018798828 120.230598449707 96.51748657226563 121.6462326049805 93.18634796142578 C 123.0859985351563 89.79828643798828 124.1917953491211 86.25281524658203 124.932861328125 82.64851379394531 C 125.694694519043 78.94294738769531 126.0809936523438 75.12467956542969 126.0809936523438 71.29975128173828 C 126.0809936523438 67.47484588623047 125.6947326660156 63.65665054321289 124.9328994750977 59.9512825012207 C 124.1918334960938 56.34688186645508 123.0860290527344 52.80144882202148 121.6462326049805 49.41341781616211 C 120.2306289672852 46.08234786987305 118.4774932861328 42.86804962158203 116.4354629516602 39.85964965820313 C 114.4095001220703 36.87495040893555 112.0819320678711 34.06734848022461 109.5173263549805 31.51484870910645 C 106.9516296386719 28.96125030517578 104.128662109375 26.64301681518555 101.1268997192383 24.62464904785156 C 98.09886169433594 22.58858299255371 94.86259460449219 20.8402156829834 91.50813293457031 19.42804908752441 C 89.21493530273438 18.46269226074219 86.84995269775391 17.64768600463867 84.44336700439453 16.99237632751465 L 84.44336700439453 88.88065338134766 L 84.44336700439453 103.8806533813477 L 69.44336700439453 103.8806533813477 L 23.24485206604004 103.8806533813477 C 26.37956047058105 108.2654190063477 30.11782073974609 112.1733093261719 34.38126373291016 115.519416809082 C 39.27096176147461 119.3569793701172 44.71202850341797 122.343879699707 50.55339813232422 124.3971862792969 C 56.59916305541992 126.5223846435547 62.95466232299805 127.5999145507813 69.44336700439453 127.5999145507813 M 69.44336700439453 142.5999145507813 C 61.25632858276367 142.5999145507813 53.22723007202148 141.23681640625 45.57906341552734 138.5483856201172 C 38.18676376342773 135.9499206542969 31.30346298217773 132.1719207763672 25.12039756774902 127.3192520141602 C 18.99686431884766 122.513313293457 13.72873020172119 116.7874145507813 9.462363243103027 110.300651550293 C 5.124063491821289 103.7044525146484 1.940463542938232 96.49774932861328 -3.173828190483619e-06 88.88065338134766 L 69.44336700439453 88.88065338134766 L 69.44336700439453 1.631266241020057e-05 C 74.30486297607422 1.631266241020057e-05 79.16216278076172 0.487516313791275 83.88086700439453 1.448583006858826 C 88.48043060302734 2.385316371917725 93.00469970703125 3.783116340637207 97.32803344726563 5.603116512298584 C 101.5728607177734 7.390082836151123 105.6669998168945 9.601816177368164 109.496696472168 12.17688274383545 C 113.2900619506836 14.72754955291748 116.8571319580078 17.65678215026855 120.0988616943359 20.88324928283691 C 123.3406295776367 24.10971641540527 126.2837600708008 27.65998268127441 128.846435546875 31.43541717529297 C 131.4337005615234 35.24701690673828 133.6559295654297 39.32181549072266 135.4513702392578 43.54671478271484 C 137.2799682617188 47.84965133666992 138.684326171875 52.3525505065918 139.6255645751953 56.93038177490234 C 140.5912933349609 61.62761688232422 141.0809936523438 66.46215057373047 141.0809936523438 71.29975128173828 C 141.0809936523438 76.13735198974609 140.5912933349609 80.97194671630859 139.6255645751953 85.66925048828125 C 138.684326171875 90.24711608886719 137.2799682617188 94.75005340576172 135.4513702392578 99.05301666259766 C 133.6559295654297 103.2778854370117 131.4337310791016 107.3527145385742 128.846435546875 111.1644134521484 C 126.2836608886719 114.9398803710938 123.3405990600586 118.4901809692383 120.0988616943359 121.7166137695313 C 116.8570938110352 124.943115234375 113.2900314331055 127.8723526000977 109.496696472168 130.4230194091797 C 105.6669616699219 132.9981231689453 101.5728302001953 135.2098541259766 97.32803344726563 136.9967803955078 C 93.00460052490234 138.8168182373047 88.48033142089844 140.2146453857422 83.88086700439453 141.1513824462891 C 79.1614990234375 142.112548828125 74.30403137207031 142.5999145507813 69.44336700439453 142.5999145507813 Z" stroke="none" fill="#27debf"/>
    </g>
    <g id="Group_208" data-name="Group 208" transform="translate(21.869 24.816)">
      <g id="Path_65" data-name="Path 65" transform="translate(0 0)" fill="#fff">
        <path d="M67.219,0A67.217,67.217,0,1,1,17.045,22.486,67.219,67.219,0,0,1,67.219,0Z" stroke="none"/>
        <path d="M 67.21860504150391 1.999984741210938 C 62.46016693115234 1.999984741210938 57.71263885498047 2.514572143554688 53.10789489746094 3.5294189453125 C 48.62925720214844 4.5164794921875 44.24380493164063 5.9854736328125 40.07338714599609 7.8956298828125 C 35.97962188720703 9.770645141601563 32.06544494628906 12.08293151855469 28.43955230712891 14.76828002929688 C 24.8428955078125 17.43196868896484 21.51177215576172 20.47593688964844 18.53868103027344 23.81560516357422 C 13.31156921386719 29.68718719482422 9.228729248046875 36.35004425048828 6.403579711914063 43.61911773681641 C 3.481582641601563 51.13735198974609 2 59.07736968994141 2 67.21858978271484 C 2 76.02393341064453 3.724090576171875 84.56480407714844 7.1243896484375 92.60400390625 C 8.758735656738281 96.46804809570313 10.78171539306641 100.1950607299805 13.13713073730469 103.6815338134766 C 15.47051239013672 107.1354064941406 18.15031433105469 110.3833312988281 21.10208129882813 113.3350982666016 C 24.05385589599609 116.286865234375 27.30178833007813 118.9666595458984 30.75566101074219 121.3000411987305 C 34.24213409423828 123.6554641723633 37.96914672851563 125.6784439086914 41.83318328857422 127.3127899169922 C 49.87238311767578 130.7130737304688 58.41326141357422 132.4371643066406 67.21860504150391 132.4371643066406 C 76.02394866943359 132.4371643066406 84.5648193359375 130.7130737304688 92.60401916503906 127.3127899169922 C 96.46806335449219 125.6784439086914 100.1950759887695 123.6554641723633 103.6815490722656 121.3000411987305 C 107.1354217529297 118.9666595458984 110.3833465576172 116.286865234375 113.3351287841797 113.3350982666016 C 116.2868957519531 110.3833312988281 118.9666976928711 107.1354064941406 121.3000793457031 103.6815338134766 C 123.6554946899414 100.1950607299805 125.6784820556641 96.46804809570313 127.3128204345703 92.60400390625 C 130.7131195068359 84.56480407714844 132.4372100830078 76.02393341064453 132.4372100830078 67.21858978271484 C 132.4372100830078 58.41326141357422 130.7131195068359 49.87236785888672 127.3128204345703 41.83319091796875 C 125.6784820556641 37.96915435791016 123.6554946899414 34.24211883544922 121.3000793457031 30.75564575195313 C 118.9666976928711 27.30178833007813 116.2868957519531 24.05384063720703 113.3351135253906 21.10208129882813 C 110.3833465576172 18.15029907226563 107.1354217529297 15.47049713134766 103.6815490722656 13.13711547851563 C 100.1950759887695 10.78170013427734 96.46806335449219 8.758720397949219 92.60401916503906 7.124374389648438 C 84.5648193359375 3.724075317382813 76.02394866943359 1.999984741210938 67.21860504150391 1.999984741210938 M 67.21860504150391 -1.52587890625e-05 C 104.3424224853516 -1.52587890625e-05 134.4372100830078 30.09478759765625 134.4372100830078 67.21858978271484 C 134.4372100830078 104.3424072265625 104.3424224853516 134.4371643066406 67.21860504150391 134.4371643066406 C 30.09478759765625 134.4371643066406 0 104.3424072265625 0 67.21858978271484 C 0 50.06748199462891 6.423492431640625 34.41666412353516 17.04486083984375 22.48575592041016 C 29.30773162841797 8.710823059082031 47.24591064453125 -1.52587890625e-05 67.21860504150391 -1.52587890625e-05 Z" stroke="none" fill="rgba(15,191,97,0.2)"/>
      </g>
    </g>
    <text id="_75_" data-name="75%" transform="translate(88.517 97.002)" fill="#151d41" font-size="36" font-family="SegoeUI-Bold, Segoe UI" font-weight="700"><tspan x="-36.316" y="0">75%</tspan></text>
    <text id="Development" transform="translate(46.775 120.326)" fill="#151d41" font-size="9" font-family="SegoeUI, Segoe UI"><tspan x="0" y="0">DEVELOPMENT</tspan></text>
  </g>
</svg>
